<svg version="1.1" id="Layer_1" xmlns="http://www.w3.org/2000/svg" xmlns:xlink="http://www.w3.org/1999/xlink" x="0px" y="0px"
	 width="100%" viewBox="0 0 496 496" enable-background="new 0 0 496 496" xml:space="preserve">
<path fill="#000000" opacity="1.000000" stroke="none" 
	d="
M497.000000,106.000000 
	C497.000000,236.292297 497.000000,366.584595 497.000000,496.938446 
	C331.759766,496.938446 166.519516,496.938446 1.000000,496.938446 
	C1.000000,339.642700 1.000000,182.285233 1.246841,24.614281 
	C7.310243,23.953608 12.841615,22.415836 18.055040,19.908144 
	C19.611477,19.159487 19.732645,17.173893 19.834286,15.497445 
	C20.084106,11.376896 20.260386,7.246964 23.005867,3.793588 
	C24.125216,2.385627 22.794004,1.768052 22.000000,1.000000 
	C150.690750,1.000000 279.381500,1.000000 408.443878,1.336019 
	C409.136993,5.281542 410.391785,9.113964 409.593536,12.456039 
	C407.692963,20.413666 411.318695,26.590456 416.172089,31.315544 
	C422.915558,37.880733 427.150299,45.459797 431.112366,53.802448 
	C435.508087,63.058167 441.622467,71.490982 446.068207,80.822937 
	C447.647705,84.138451 450.299530,87.249367 453.927948,88.131393 
	C461.109619,89.877174 465.582001,94.688408 469.908020,100.107819 
	C475.881470,107.591026 482.357758,109.406609 491.138214,106.370399 
	C493.123535,105.683899 495.010162,105.559265 497.000000,106.000000 
M132.500381,362.030182 
	C137.666824,362.042145 142.833252,362.060547 147.999695,362.064880 
	C165.957214,362.079987 184.083572,363.450165 201.022598,355.363617 
	C203.650879,354.108948 204.582489,355.793610 205.246307,357.940796 
	C214.414078,387.594696 234.548264,406.602966 263.356201,416.596558 
	C282.384735,423.197632 301.948151,425.639587 321.698486,419.525360 
	C334.337982,415.612427 346.118683,409.806061 357.024628,402.249878 
	C367.126373,395.250854 366.988525,395.393280 360.959900,384.655762 
	C358.540924,380.347321 356.054871,379.789978 351.327972,381.062073 
	C333.424316,385.880188 315.264648,389.443024 296.658356,385.325500 
	C274.588715,380.441559 257.414642,369.135620 248.548386,347.431152 
	C242.645844,332.981842 242.692169,317.891083 244.190704,302.728149 
	C244.488144,299.718597 244.323303,296.388062 246.578232,293.628601 
	C248.362457,294.003113 249.327103,295.403046 250.415573,296.617401 
	C257.310455,304.309692 264.106293,312.093109 271.110107,319.684753 
	C281.601257,331.056396 291.294067,343.172150 303.716309,352.707031 
	C317.953674,363.635101 332.674988,364.992889 348.453522,356.575714 
	C355.538818,352.795959 361.953339,348.015961 368.536926,343.484253 
	C375.711334,338.545868 375.699097,338.524078 373.781128,330.118439 
	C373.226349,327.687164 372.709320,325.245422 372.078339,322.833740 
	C370.403534,316.432251 364.901794,314.074829 359.208679,317.643860 
	C357.301453,318.839569 355.679382,318.943604 353.632996,318.815002 
	C347.927521,318.456421 343.688599,315.493652 339.711456,311.749451 
	C320.651947,293.806335 302.876923,274.604614 284.744690,255.753403 
	C283.650452,254.615753 282.076324,253.624435 282.359253,251.650238 
	C292.900696,244.990173 327.587189,244.749023 335.499817,251.472870 
	C331.823883,257.863495 325.936371,262.917053 322.579529,269.464417 
	C324.558624,270.961517 325.635620,270.276154 326.682190,269.855072 
	C336.257935,266.002075 345.927094,262.357758 355.359772,258.180115 
	C362.884918,254.847321 369.479919,249.963058 374.901245,243.700043 
	C380.965942,236.693741 379.788269,228.875687 372.040253,223.716858 
	C369.105286,221.762680 365.935822,220.291306 362.517517,219.422684 
	C346.988892,215.476715 331.241455,214.978546 315.456451,217.123291 
	C308.010162,218.135025 300.695435,220.114716 293.138275,221.694000 
	C293.317169,219.097839 294.985596,218.036285 296.112762,216.663956 
	C320.174835,187.368195 315.585297,145.704758 285.621582,122.598541 
	C264.593781,106.383163 240.594193,103.493057 215.050354,106.698891 
	C200.061111,108.580070 184.996902,110.788025 169.802704,108.499367 
	C167.528137,108.156754 165.579086,108.951668 163.666580,110.108040 
	C156.823807,114.245445 149.942566,118.319244 143.078735,122.421852 
	C132.814850,128.556732 132.815887,128.558441 136.342087,139.944809 
	C139.337738,149.617950 139.341751,149.794601 149.541718,149.562866 
	C153.887848,149.464127 155.584137,150.883926 155.343277,155.274399 
	C154.732315,166.411240 154.833740,177.573837 154.528183,188.723038 
	C153.871201,212.694931 154.310364,236.683609 153.526352,260.671844 
	C152.840820,281.645966 151.502838,302.531616 149.340347,323.392944 
	C148.585815,330.671783 145.839279,335.906250 139.158920,339.748077 
	C129.937057,345.051453 121.312431,351.398804 112.483749,357.375458 
	C110.829430,358.495361 108.709900,359.256683 107.615646,362.027008 
	C115.944214,362.027008 123.722473,362.027008 132.500381,362.030182 
z"/>
<path fill="#000000" opacity="1.000000" stroke="none" 
	d="
M238.051697,152.758972 
	C242.580490,155.005493 246.515778,157.460358 250.061874,160.548218 
	C258.145203,167.587082 260.828552,176.614090 260.011383,186.990601 
	C259.335785,195.569412 257.237457,203.679672 252.520264,211.010223 
	C248.055542,217.948441 241.714462,221.813431 233.550461,222.246582 
	C230.174194,222.425705 227.512604,223.596039 224.866806,225.454071 
	C218.660995,229.812180 212.366318,234.043747 206.212708,238.254578 
	C204.151108,236.432556 204.630432,234.657211 204.665558,233.103439 
	C205.290024,205.491608 206.007751,177.881851 206.593185,150.269257 
	C206.664993,146.881760 208.206116,145.939621 211.249161,146.121140 
	C220.470795,146.671234 229.373764,148.465073 238.051697,152.758972 
z"/>
<path fill="#000000" opacity="1.000000" stroke="none" 
	d="
M219.402283,270.206909 
	C209.235703,285.610321 204.487030,302.641357 200.979324,320.227966 
	C203.190231,295.486572 203.040558,270.773682 204.804794,246.087189 
	C207.535019,248.576828 208.302826,251.778839 209.330536,254.798935 
	C210.668900,258.731812 212.430984,261.840912 216.962204,263.024200 
	C220.323837,263.902069 222.805023,266.035950 219.402283,270.206909 
z"/>
</svg>